HIERARCHY
ROOT Hips
{
	OFFSET -0.179506 -22.333345 2.821913
	CHANNELS 6 Xposition Yposition Zposition Zrotation Yrotation Xrotation 
	JOINT LeftUpLeg
	{
		OFFSET 6.951974 -9.140623 -0.681533
		CHANNELS 3 Zrotation Yrotation Xrotation
		JOINT LeftLeg
		{
			OFFSET 3.427654 -37.519855 -0.449580
			CHANNELS 3 Zrotation Yrotation Xrotation
			JOINT LeftFoot
			{
				OFFSET -1.359570 -39.796059 -4.369333
				CHANNELS 3 Zrotation Yrotation Xrotation
				JOINT LeftToe
				{
					OFFSET 2.635814 -5.579078 11.928840
					CHANNELS 3 Zrotation Yrotation Xrotation
					End Site
					{
						OFFSET 0.000000 0.000000 0.000000
					}
				}
			}
		}
	}
	JOINT RightUpLeg
	{
		OFFSET -6.767048 -9.052170 -0.431982
		CHANNELS 3 Zrotation Yrotation Xrotation
		JOINT RightLeg
		{
			OFFSET -3.829005 -38.256897 -0.885003
			CHANNELS 3 Zrotation Yrotation Xrotation
			JOINT RightFoot
			{
				OFFSET 1.577377 -39.841461 -4.231180
				CHANNELS 3 Zrotation Yrotation Xrotation
				JOINT RightToe
				{
					OFFSET -2.537174 -4.814398 12.334795
					CHANNELS 3 Zrotation Yrotation Xrotation
					End Site
					{
						OFFSET 0.000000 0.000000 0.000000
					}
				}
			}
		}
	}
	JOINT Spine
	{
		OFFSET -0.253288 10.896323 -2.669631
		CHANNELS 3 Zrotation Yrotation Xrotation
		JOINT Spine1
		{
			OFFSET 0.548704 13.518043 0.109247
			CHANNELS 3 Zrotation Yrotation Xrotation
			JOINT Spine2
			{
				OFFSET 0.145701 5.292222 2.542457
				CHANNELS 3 Zrotation Yrotation Xrotation
				JOINT Neck
				{
					OFFSET -0.277840 21.387037 -4.285703
					CHANNELS 3 Zrotation Yrotation Xrotation
					JOINT Head
					{
						OFFSET 0.515184 6.496960 5.134897
						CHANNELS 3 Zrotation Yrotation Xrotation
						End Site
						{
							OFFSET 0.000000 0.000000 0.000000
						}
					}
				}
				JOINT LeftShoulder
				{
					OFFSET 7.884473 12.174932 -3.408961
					CHANNELS 3 Zrotation Yrotation Xrotation
					JOINT LeftArm
					{
						OFFSET 9.097692 3.046888 -0.886815
						CHANNELS 3 Zrotation Yrotation Xrotation
						JOINT LeftForeArm
						{
							OFFSET 25.961220 -1.277207 -2.745643
							CHANNELS 3 Zrotation Yrotation Xrotation
							JOINT LeftHand
							{
								OFFSET 24.923361 0.898606 -0.117091
								CHANNELS 3 Zrotation Yrotation Xrotation
								End Site
								{
									OFFSET 0.000000 0.000000 0.000000
								}
							}
						}
					}
				}
				JOINT RightShoulder
				{
					OFFSET -8.175920 11.883285 -3.861528
					CHANNELS 3 Zrotation Yrotation Xrotation
					JOINT RightArm
					{
						OFFSET -9.601238 3.255117 -0.914307
						CHANNELS 3 Zrotation Yrotation Xrotation
						JOINT RightForeArm
						{
							OFFSET -25.374195 -1.332924 -2.140099
							CHANNELS 3 Zrotation Yrotation Xrotation
							JOINT RightHand
							{
								OFFSET -25.529810 0.777228 -0.555919
								CHANNELS 3 Zrotation Yrotation Xrotation
								End Site
								{
									OFFSET 0.000000 0.000000 0.000000
								}
							}
						}
					}
				}
			}
		}
	}
}
MOTION
Frames: 18
Frame Time: 0.033333
1.910471 -15.665447 92.189545 -120.936973 2.786428 89.317156 11.582818 5.405976 6.311647 -2.116683 -2.060427 2.700524 1.295243 12.430595 -20.090385 nan nan nan -9.631379 -8.516337 -9.791259 2.859049 -10.701493 7.163165 5.604729 -6.759401 -2.700751 nan nan nan -5.771019 -0.461663 -1.836220 5.449507 -5.631948 8.237363 1.208205 -1.092296 -4.347100 -5.312564 11.726902 1.801586 -1.250343 11.232958 5.386709 -16.493417 -8.309368 2.368915 -62.554612 -31.886160 27.580337 163.236786 -65.037927 -130.698559 1.559552 -15.372175 -9.394733 19.470818 -1.425106 -1.686807 45.064490 12.569862 1.553230 -94.543973 57.547540 -70.779785 -1.291896 5.066493 -4.168335 
1.977736 -15.680361 91.985771 -120.852336 2.813156 88.664639 11.909468 5.220260 7.020899 -2.286624 -1.821884 2.651249 1.189971 11.841724 -19.974442 nan nan nan -9.833976 -8.631647 -8.993604 3.075504 -10.920187 7.162532 5.498293 -6.164514 -3.206749 nan nan nan -6.412052 -0.204363 -2.281856 6.249933 -5.781533 11.008789 1.120378 -1.114079 -4.610120 -2.330610 4.512075 5.343857 -0.161015 3.240414 8.098712 -15.398103 -6.400334 2.336526 -65.087665 -35.523044 29.615715 159.361712 -65.578620 -129.596541 -2.001153 -16.961503 -8.476370 18.662872 -1.831507 -2.337796 45.918358 13.816436 2.264355 -94.389243 56.743601 -70.498696 0.673319 5.485225 -3.958606 
1.992821 -15.720385 91.979485 -120.860058 2.803635 88.679882 11.871772 5.184502 7.029595 -2.278436 -1.656628 2.556429 1.157463 11.800055 -19.773068 nan nan nan -9.833900 -8.619749 -8.985055 3.105918 -10.902656 7.077223 5.531846 -6.136690 -3.177793 nan nan nan -6.380273 -0.235883 -2.408883 6.224690 -5.755030 11.175403 1.020984 -1.086648 -4.555508 -1.829403 3.452348 5.674515 0.023552 2.027546 8.539616 -15.157887 -6.093114 2.200921 -65.745572 -36.279794 30.141173 158.743527 -65.526818 -129.330418 -2.345173 -16.746824 -8.140397 18.419866 -1.884163 -2.272526 46.423703 13.935692 2.483749 -94.142357 56.601341 -70.403245 1.021129 5.351810 -4.255762 
1.979322 -15.675133 91.985069 -120.762787 2.774250 88.386416 12.334481 6.646842 6.731325 -4.051583 1.227129 3.687553 1.174104 11.361517 -19.402528 nan nan nan -9.818476 -8.808195 -8.550689 3.061313 -11.135014 6.908381 5.498412 -5.801303 -3.478804 nan nan nan -6.823757 -0.136166 -2.066790 6.458681 -5.835548 11.469778 1.135113 -1.026875 -4.730187 -0.875616 2.250161 6.481705 -0.067860 0.008587 8.509033 -14.809519 -5.624894 2.025309 -66.894176 -37.156421 31.034679 157.936752 -65.568149 -128.987362 -3.300466 -16.873022 -7.185897 18.456811 -2.074686 -2.444232 46.720332 14.123610 2.715989 -93.928525 56.383285 -70.001067 1.411201 5.271840 -3.391953 
2.007329 -15.660875 91.942940 -120.782527 2.902175 88.329066 12.615069 6.703924 6.894136 -4.195564 1.343539 3.539413 0.937410 11.019688 -19.180088 nan nan nan -9.601148 -8.782421 -8.546042 2.960194 -11.305110 6.971968 5.296564 -5.553289 -3.950309 nan nan nan -7.038028 -0.020172 -2.257334 6.621332 -5.804378 12.313260 1.341794 -1.038191 -5.196722 -0.473537 2.154281 6.748613 -0.117612 -1.084956 8.562269 -14.654973 -5.731706 1.875213 -67.133169 -37.990752 30.797489 156.782826 -65.336227 -126.998586 -5.428770 -18.018891 -4.442395 18.764917 -1.887938 -2.582670 46.603637 14.244091 2.482052 -93.909744 56.020223 -69.430151 2.989070 5.869396 -1.706042 
2.089444 -15.607904 91.887299 -120.675755 2.836349 88.439738 12.652134 6.477279 6.896005 -4.414209 1.087436 3.236464 0.732819 11.236107 -18.922670 nan nan nan -9.682716 -9.011102 -8.706103 3.239326 -10.716241 7.056212 5.176492 -6.069756 -4.312728 nan nan nan -8.424346 0.425149 -3.193226 8.083085 -6.429391 13.975377 1.257294 -0.991347 -5.975090 5.847436 -19.280628 15.417570 7.317604 -18.686951 16.091033 -15.096067 -4.907719 4.472950 -66.992760 -41.842203 31.775168 154.841844 -65.225527 -126.445313 -6.294287 -18.222156 -3.348175 18.495722 -1.481007 -2.721955 46.453444 13.845857 1.745656 -93.795277 56.347333 -69.121238 4.047214 6.459048 -1.832811 
2.130457 -15.572075 91.871536 -120.679025 2.781859 88.398988 12.644947 6.345569 7.093979 -4.479389 1.212328 2.930207 0.792151 11.126097 -18.713968 nan nan nan -9.773027 -9.055098 -8.660495 3.287041 -10.837251 7.049441 5.004538 -5.808604 -4.485351 nan nan nan -8.378230 0.263477 -3.101862 8.007266 -6.642847 15.136462 1.109897 -0.980617 -7.244128 6.048180 -19.051073 15.214829 6.859180 -19.071848 16.537059 -14.719898 -4.239692 4.190288 -67.712736 -42.090277 32.525532 154.442857 -64.848864 -126.454293 -7.228092 -18.536034 -3.183095 18.565346 -1.657686 -2.515271 46.855985 14.299216 2.476409 -93.633921 56.131915 -68.682018 5.594045 6.610166 -1.241807 
2.147765 -15.566435 91.871231 -120.634624 2.810834 88.423768 12.675176 6.320393 7.056247 -4.456704 1.260287 2.869364 0.788954 11.127771 -18.608629 nan nan nan -9.759966 -9.081767 -8.661160 3.314350 -10.816210 7.016378 4.981546 -5.810944 -4.497511 nan nan nan -8.436719 0.300176 -3.167954 8.036340 -6.645344 15.187633 1.109121 -0.895004 -7.247991 6.191577 -19.053285 14.922223 6.827755 -19.055901 16.838831 -14.600734 -4.445571 4.246771 -68.045702 -42.487872 32.848552 154.304579 -64.775207 -126.281035 -7.079008 -18.476643 -3.048296 18.672511 -1.860522 -2.680496 46.887468 14.221451 2.585262 -93.511803 56.108331 -68.450990 5.440223 6.433260 -1.214765 
2.134861 -15.500800 91.898483 -120.611993 2.837338 88.339737 12.848631 6.567179 7.202626 -4.542849 1.254055 2.753914 0.827021 10.949901 -18.454871 nan nan nan -9.630727 -9.104100 -8.559767 3.021120 -10.657161 7.383310 4.582189 -5.531952 -5.182513 nan nan nan -8.246385 0.211269 -3.027746 8.136666 -6.666939 15.455498 1.222767 -1.389742 -7.785199 5.427134 -18.518510 16.014235 6.929562 -19.375416 15.795485 -14.905808 -3.578400 4.127700 -68.251486 -42.460348 32.767212 155.169273 -64.635674 -127.190754 -7.279138 -18.778328 -2.835573 18.325565 -1.884570 -2.117441 47.412191 15.012019 2.734161 -93.225836 56.065318 -67.623323 4.456134 6.499866 -0.738499 
2.139728 -15.502851 91.870712 -120.568914 2.852089 88.325789 12.916800 6.628006 7.212130 -4.579483 1.211410 2.676853 0.942241 10.960310 -18.361342 nan nan nan -9.637815 -9.133703 -8.508354 3.056654 -10.544095 7.264471 4.644193 -5.558578 -5.140033 nan nan nan -8.553527 0.350686 -3.287524 8.217264 -6.718789 15.848636 1.245449 -1.057443 -7.863878 5.822517 -18.686140 15.653566 6.839098 -19.357868 16.382332 -14.628874 -4.340415 4.519046 -68.464029 -43.037128 33.060653 154.670486 -64.621044 -126.625191 -6.836373 -18.481899 -2.526473 18.517617 -2.054515 -2.421550 47.220447 14.578293 2.698317 -93.105347 55.976928 -67.518075 3.972150 6.327145 -0.974607 
2.127851 -15.455748 91.843178 -120.589607 2.850396 88.183890 13.051406 6.811436 7.444493 -4.684321 1.025888 2.542798 1.095886 10.909027 -18.271722 nan nan nan -9.693582 -9.285273 -8.393923 3.123795 -10.541386 7.319754 4.569007 -5.323145 -5.300147 nan nan nan -8.650935 0.394548 -3.198494 8.295975 -6.809549 16.488901 1.192906 -0.894582 -9.325943 4.599288 -19.363787 17.681691 5.483244 -19.187923 18.134717 -14.502976 -4.432937 6.137703 -68.468820 -43.868134 32.558447 154.517678 -64.529555 -126.751274 -7.406661 -18.726452 -2.779823 18.299018 -2.299177 -0.809226 47.388501 15.094805 1.989830 -92.899378 55.966000 -66.839458 4.539051 6.553750 -0.864266 
2.138967 -15.422453 91.829330 -120.618065 2.868332 88.140788 13.158366 6.862639 7.540476 -4.773492 1.042844 2.458976 1.109079 10.829092 -18.195330 nan nan nan -9.709271 -9.331536 -8.382598 3.184014 -10.679313 7.407239 4.362291 -5.076260 -5.408726 nan nan nan -8.944185 0.458088 -3.352932 8.390644 -6.886625 17.030419 1.282764 -0.456517 -9.813282 3.777082 -19.421172 18.995031 5.735338 -18.986007 16.656515 -14.322186 -4.880835 6.723677 -68.818264 -44.298497 32.731953 154.005364 -64.478356 -126.574874 -7.674248 -19.186119 -2.980843 18.319937 -2.563725 -0.728140 47.319193 14.945507 1.613801 -92.918849 56.076808 -66.724523 5.060041 6.688509 -0.656895 
2.164417 -15.401113 91.830269 -120.639055 2.890292 88.146933 13.198110 6.843770 7.544270 -4.785255 1.103280 2.447729 1.114043 10.820668 -18.200140 nan nan nan -9.668072 -9.281145 -8.404111 3.158067 -10.509914 7.521858 4.320813 -5.044070 -5.436088 nan nan nan -8.917349 0.462550 -3.363679 8.404156 -6.877047 17.053427 1.255661 -0.434604 -9.808906 3.768981 -19.333394 18.982903 5.617386 -18.919183 16.666350 -14.286752 -4.835169 6.680429 -68.925005 -44.429177 32.904417 154.339159 -64.509154 -126.744866 -7.471043 -19.270424 -2.698976 18.489928 -2.672731 -0.772516 47.195247 15.057767 1.665976 -92.978097 56.132580 -66.786279 5.039196 6.692015 -0.350830 
2.177005 -15.374207 91.835922 -120.647810 2.891562 88.157531 13.210676 6.843833 7.545170 -4.786312 1.150303 2.450544 1.108293 10.795552 -18.220178 nan nan nan -9.643966 -9.196702 -8.384142 3.099777 -10.276950 7.599565 4.309665 -5.066317 -5.485085 nan nan nan -8.800441 0.453765 -3.294881 8.407128 -6.829608 17.033086 1.235221 -0.627475 -9.919240 3.643693 -19.083258 19.002686 5.508461 -18.910195 16.715816 -14.324394 -4.518668 6.602056 -68.982661 -44.472210 33.025335 155.068799 -64.482370 -127.150448 -7.375679 -19.181962 -2.124529 18.470390 -2.758779 -0.584043 47.283965 15.363213 1.827964 -93.017479 56.159535 -66.729547 4.848906 6.694724 -0.259929 
2.190234 -15.353213 91.839088 -120.650185 2.885112 88.149689 13.222125 6.861136 7.570814 -4.786623 1.167602 2.433397 1.091244 10.755097 -18.223437 nan nan nan -9.641575 -9.174804 -8.365956 3.082678 -10.255969 7.634212 4.299209 -5.093580 -5.451688 nan nan nan -8.733309 0.460431 -3.236094 8.417967 -6.792475 17.060044 1.242173 -0.784455 -10.034558 3.493239 -18.824146 19.091997 5.510595 -18.901638 16.633903 -14.383254 -4.326625 6.567042 -68.935776 -44.484243 33.077375 155.427887 -64.341098 -127.503351 -7.521957 -19.370437 -2.320025 18.349729 -2.746681 -0.434276 47.440689 15.508034 1.973892 -93.108900 56.109170 -66.711611 4.894789 6.725156 -0.474946 
2.208705 -15.340136 91.839279 -120.643236 2.898591 88.138888 13.254018 6.856949 7.586088 -4.785813 1.163854 2.412017 1.092356 10.740732 -18.247699 nan nan nan -9.617789 -9.163435 -8.368811 3.084857 -10.334649 7.647181 4.299214 -5.120413 -5.422260 nan nan nan -8.717617 0.427004 -3.159803 8.445559 -6.800769 17.018901 1.260093 -0.864815 -10.059277 3.418621 -18.608746 19.120515 5.550369 -18.864341 16.612354 -14.407130 -4.148623 6.488106 -68.930565 -44.444309 33.184525 155.836884 -64.265079 -127.974167 -7.494223 -19.364957 -2.388337 18.319098 -2.741085 -0.344196 47.498298 15.672807 2.074521 -93.206146 56.101220 -66.789188 4.996437 6.641665 -0.556379 
2.218480 -15.338320 91.835106 -120.633590 2.926669 88.097372 13.308097 6.851603 7.629082 -4.804348 1.150914 2.424285 1.123531 10.721423 -18.281425 nan nan nan -9.597814 -9.179538 -8.321184 3.097229 -10.329536 7.651208 4.375418 -5.156039 -5.457826 nan nan nan -8.679957 0.375389 -3.083870 8.466751 -6.816890 16.969310 1.247910 -0.903022 -10.014162 3.442202 -18.451810 19.012036 5.512889 -18.860445 16.782197 -14.401788 -3.935176 6.408278 -68.999626 -44.410296 33.318155 156.453420 -64.289089 -128.619237 -7.286531 -19.188412 -2.139751 18.310639 -2.743824 -0.287034 47.518969 15.855694 2.153290 -93.233260 56.092424 -66.838908 5.004064 6.506292 -0.506367 
2.218323 -15.340922 91.832489 -120.619988 2.937018 88.117483 13.312826 6.858099 7.620085 -4.800092 1.180622 2.413349 1.083909 10.701929 -18.299906 nan nan nan -9.600556 -9.185344 -8.329223 3.117268 -10.367723 7.654952 4.424255 -5.157197 -5.482927 nan nan nan -8.630993 0.328901 -3.116540 8.477630 -6.823469 16.910631 1.226509 -0.922153 -9.958032 3.365277 -18.381504 19.130384 5.613578 -18.858154 16.660578 -14.435737 -3.748523 6.402926 -69.044063 -44.288562 33.366604 156.777172 -64.246198 -129.140626 -7.353335 -19.615278 -2.927861 18.173510 -2.790551 -0.250127 47.706536 15.988770 2.178444 -93.245982 56.086392 -66.603660 4.916763 6.529507 -0.549448 
